<mxfile host="app.diagrams.net" agent="Mozilla/5.0 (Windows NT 10.0; Win64; x64) AppleWebKit/537.36 (KHTML, like Gecko) Chrome/128.0.0.0 Safari/537.36" version="24.9.3">
  <diagram id="prtHgNgQTEPvFCAcTncT" name="Page-1">
    <mxGraphModel dx="989" dy="597" grid="1" gridSize="10" guides="1" tooltips="1" connect="1" arrows="1" fold="1" page="1" pageScale="1" pageWidth="827" pageHeight="1169" math="0" shadow="0">
      <root>
        <mxCell id="0" />
        <mxCell id="1" parent="0" />
        <mxCell id="XAqr80cx_UROCdp8eu2B-40" style="edgeStyle=orthogonalEdgeStyle;rounded=0;orthogonalLoop=1;jettySize=auto;html=1;exitX=1;exitY=0.5;exitDx=0;exitDy=0;entryX=0;entryY=0.5;entryDx=0;entryDy=0;" edge="1" parent="1" source="XAqr80cx_UROCdp8eu2B-3" target="XAqr80cx_UROCdp8eu2B-4">
          <mxGeometry relative="1" as="geometry" />
        </mxCell>
        <mxCell id="XAqr80cx_UROCdp8eu2B-42" style="edgeStyle=orthogonalEdgeStyle;rounded=0;orthogonalLoop=1;jettySize=auto;html=1;exitX=1;exitY=0.5;exitDx=0;exitDy=0;entryX=0;entryY=0.5;entryDx=0;entryDy=0;" edge="1" parent="1" source="XAqr80cx_UROCdp8eu2B-3" target="XAqr80cx_UROCdp8eu2B-11">
          <mxGeometry relative="1" as="geometry" />
        </mxCell>
        <mxCell id="XAqr80cx_UROCdp8eu2B-3" value="&lt;p data-pm-slice=&quot;1 1 [&amp;quot;tiptapChildEditor&amp;quot;,{&amp;quot;id&amp;quot;:&amp;quot;6178e4e1-38f4-4a3a-aa47-2137c63f4f08&amp;quot;,&amp;quot;entityid&amp;quot;:&amp;quot;&amp;quot;,&amp;quot;shapeId&amp;quot;:&amp;quot;ghHZQRfsKGh&amp;quot;,&amp;quot;textId&amp;quot;:&amp;quot;identifier&amp;quot;}]&quot; dir=&quot;ltr&quot;&gt;&lt;span style=&quot;color: rgba(0, 0, 0, 0.8); font-family: noto_regular;&quot;&gt;&lt;font style=&quot;font-size: 8px;&quot;&gt;新しいGVI_日本&lt;/font&gt;&lt;/span&gt;&lt;/p&gt;" style="shape=parallelogram;perimeter=parallelogramPerimeter;whiteSpace=wrap;html=1;fixedSize=1;" vertex="1" parent="1">
          <mxGeometry x="20" y="70" width="90" height="60" as="geometry" />
        </mxCell>
        <mxCell id="XAqr80cx_UROCdp8eu2B-41" style="edgeStyle=orthogonalEdgeStyle;rounded=0;orthogonalLoop=1;jettySize=auto;html=1;exitX=1;exitY=0.5;exitDx=0;exitDy=0;entryX=0;entryY=0.5;entryDx=0;entryDy=0;" edge="1" parent="1" source="XAqr80cx_UROCdp8eu2B-4" target="XAqr80cx_UROCdp8eu2B-21">
          <mxGeometry relative="1" as="geometry" />
        </mxCell>
        <mxCell id="XAqr80cx_UROCdp8eu2B-4" value="&lt;p dir=&quot;ltr&quot; style=&quot;text-align: center&quot;&gt;&lt;span style=&quot;color: rgba(0, 0, 0, 0.8); font-family: arial, helvetica, sans-serif;&quot;&gt;&lt;font style=&quot;font-size: 8px;&quot;&gt;YD1、Y2R,YWO　&lt;/font&gt;&lt;/span&gt;&lt;span style=&quot;font-size: 8px; color: rgba(0, 0, 0, 0.8); font-family: arial, helvetica, sans-serif; background-color: initial;&quot;&gt;一週間分&lt;/span&gt;&lt;span style=&quot;font-size: 8px; color: rgba(0, 0, 0, 0.8); font-family: arial, helvetica, sans-serif; background-color: initial;&quot;&gt;比例を計算&lt;/span&gt;&lt;/p&gt;" style="rounded=0;whiteSpace=wrap;html=1;" vertex="1" parent="1">
          <mxGeometry x="150" y="70" width="90" height="60" as="geometry" />
        </mxCell>
        <mxCell id="XAqr80cx_UROCdp8eu2B-43" style="edgeStyle=orthogonalEdgeStyle;rounded=0;orthogonalLoop=1;jettySize=auto;html=1;exitX=0.5;exitY=1;exitDx=0;exitDy=0;entryX=0.5;entryY=0;entryDx=0;entryDy=0;" edge="1" parent="1" source="XAqr80cx_UROCdp8eu2B-11" target="XAqr80cx_UROCdp8eu2B-16">
          <mxGeometry relative="1" as="geometry" />
        </mxCell>
        <mxCell id="XAqr80cx_UROCdp8eu2B-11" value="&lt;p dir=&quot;ltr&quot; style=&quot;text-align: center&quot;&gt;&lt;font face=&quot;arial, helvetica, sans-serif&quot; color=&quot;rgba(0, 0, 0, 0.8)&quot;&gt;&lt;span style=&quot;font-size: 8px;&quot;&gt;仮名化ツール&lt;/span&gt;&lt;/font&gt;&lt;br&gt;&lt;/p&gt;" style="rounded=0;whiteSpace=wrap;html=1;" vertex="1" parent="1">
          <mxGeometry x="150" y="200" width="90" height="60" as="geometry" />
        </mxCell>
        <mxCell id="XAqr80cx_UROCdp8eu2B-45" style="edgeStyle=orthogonalEdgeStyle;rounded=0;orthogonalLoop=1;jettySize=auto;html=1;exitX=0.5;exitY=1;exitDx=0;exitDy=0;entryX=0.5;entryY=0;entryDx=0;entryDy=0;" edge="1" parent="1" source="XAqr80cx_UROCdp8eu2B-13" target="XAqr80cx_UROCdp8eu2B-16">
          <mxGeometry relative="1" as="geometry" />
        </mxCell>
        <mxCell id="XAqr80cx_UROCdp8eu2B-13" value="&lt;p dir=&quot;ltr&quot; style=&quot;text-align: left;&quot;&gt;&lt;span style=&quot;font-size: 8px;&quot;&gt;契約Ｖｉｎファイル&lt;/span&gt;&lt;br&gt;&lt;/p&gt;" style="rounded=0;whiteSpace=wrap;html=1;" vertex="1" parent="1">
          <mxGeometry x="470" y="200" width="110" height="60" as="geometry" />
        </mxCell>
        <mxCell id="XAqr80cx_UROCdp8eu2B-44" style="edgeStyle=orthogonalEdgeStyle;rounded=0;orthogonalLoop=1;jettySize=auto;html=1;exitX=0.5;exitY=1;exitDx=0;exitDy=0;entryX=0.5;entryY=0;entryDx=0;entryDy=0;" edge="1" parent="1" source="XAqr80cx_UROCdp8eu2B-15" target="XAqr80cx_UROCdp8eu2B-16">
          <mxGeometry relative="1" as="geometry" />
        </mxCell>
        <mxCell id="XAqr80cx_UROCdp8eu2B-15" value="&lt;p dir=&quot;ltr&quot; style=&quot;text-align: center&quot;&gt;&lt;font style=&quot;font-size: 8px;&quot;&gt;&lt;span style=&quot;text-align: left;&quot;&gt;マスターファイ&lt;/span&gt;&lt;br style=&quot;padding: 0px; margin: 0px; text-align: left;&quot;&gt;&lt;span style=&quot;text-align: left;&quot;&gt;（SOS,　生産完了日）&lt;/span&gt;&lt;/font&gt;&lt;br&gt;&lt;/p&gt;" style="rounded=0;whiteSpace=wrap;html=1;" vertex="1" parent="1">
          <mxGeometry x="310" y="200" width="90" height="60" as="geometry" />
        </mxCell>
        <mxCell id="XAqr80cx_UROCdp8eu2B-16" value="&lt;div&gt;新しいファイル&lt;/div&gt;&lt;div&gt;(最新の製造日順にVinを上から下へ並び替えます）&lt;/div&gt;" style="rounded=0;whiteSpace=wrap;html=1;" vertex="1" parent="1">
          <mxGeometry x="200" y="320" width="310" height="90" as="geometry" />
        </mxCell>
        <mxCell id="XAqr80cx_UROCdp8eu2B-31" style="edgeStyle=orthogonalEdgeStyle;rounded=0;orthogonalLoop=1;jettySize=auto;html=1;exitX=0;exitY=0.5;exitDx=0;exitDy=0;entryX=1;entryY=0.5;entryDx=0;entryDy=0;" edge="1" parent="1" source="XAqr80cx_UROCdp8eu2B-17" target="XAqr80cx_UROCdp8eu2B-18">
          <mxGeometry relative="1" as="geometry" />
        </mxCell>
        <mxCell id="XAqr80cx_UROCdp8eu2B-32" value="No" style="edgeLabel;html=1;align=center;verticalAlign=middle;resizable=0;points=[];" vertex="1" connectable="0" parent="XAqr80cx_UROCdp8eu2B-31">
          <mxGeometry x="-0.0193" y="-2" relative="1" as="geometry">
            <mxPoint as="offset" />
          </mxGeometry>
        </mxCell>
        <mxCell id="XAqr80cx_UROCdp8eu2B-17" value="Y2R&amp;gt;=235" style="rhombus;whiteSpace=wrap;html=1;" vertex="1" parent="1">
          <mxGeometry x="240" y="520" width="130" height="80" as="geometry" />
        </mxCell>
        <mxCell id="XAqr80cx_UROCdp8eu2B-35" style="edgeStyle=orthogonalEdgeStyle;rounded=0;orthogonalLoop=1;jettySize=auto;html=1;exitX=0;exitY=0.5;exitDx=0;exitDy=0;entryX=1;entryY=0.5;entryDx=0;entryDy=0;" edge="1" parent="1" source="XAqr80cx_UROCdp8eu2B-18" target="XAqr80cx_UROCdp8eu2B-26">
          <mxGeometry relative="1" as="geometry" />
        </mxCell>
        <mxCell id="XAqr80cx_UROCdp8eu2B-18" value="Y2R=max&lt;div&gt;b=235-max(Y2R)&lt;/div&gt;" style="rounded=0;whiteSpace=wrap;html=1;" vertex="1" parent="1">
          <mxGeometry x="70" y="530" width="120" height="60" as="geometry" />
        </mxCell>
        <mxCell id="XAqr80cx_UROCdp8eu2B-37" style="edgeStyle=orthogonalEdgeStyle;rounded=0;orthogonalLoop=1;jettySize=auto;html=1;exitX=1;exitY=0.5;exitDx=0;exitDy=0;entryX=0;entryY=0.5;entryDx=0;entryDy=0;" edge="1" parent="1" source="XAqr80cx_UROCdp8eu2B-19" target="XAqr80cx_UROCdp8eu2B-20">
          <mxGeometry relative="1" as="geometry" />
        </mxCell>
        <mxCell id="XAqr80cx_UROCdp8eu2B-39" value="No" style="edgeLabel;html=1;align=center;verticalAlign=middle;resizable=0;points=[];" vertex="1" connectable="0" parent="XAqr80cx_UROCdp8eu2B-37">
          <mxGeometry x="-0.0879" relative="1" as="geometry">
            <mxPoint as="offset" />
          </mxGeometry>
        </mxCell>
        <mxCell id="XAqr80cx_UROCdp8eu2B-66" style="edgeStyle=orthogonalEdgeStyle;rounded=0;orthogonalLoop=1;jettySize=auto;html=1;exitX=0.5;exitY=1;exitDx=0;exitDy=0;entryX=0.5;entryY=0;entryDx=0;entryDy=0;" edge="1" parent="1" source="XAqr80cx_UROCdp8eu2B-19" target="XAqr80cx_UROCdp8eu2B-47">
          <mxGeometry relative="1" as="geometry" />
        </mxCell>
        <mxCell id="XAqr80cx_UROCdp8eu2B-67" value="Yes" style="edgeLabel;html=1;align=center;verticalAlign=middle;resizable=0;points=[];" vertex="1" connectable="0" parent="XAqr80cx_UROCdp8eu2B-66">
          <mxGeometry x="-0.1076" relative="1" as="geometry">
            <mxPoint as="offset" />
          </mxGeometry>
        </mxCell>
        <mxCell id="XAqr80cx_UROCdp8eu2B-19" value="YW0&amp;gt;=15" style="rhombus;whiteSpace=wrap;html=1;" vertex="1" parent="1">
          <mxGeometry x="390" y="520" width="130" height="80" as="geometry" />
        </mxCell>
        <mxCell id="XAqr80cx_UROCdp8eu2B-36" style="edgeStyle=orthogonalEdgeStyle;rounded=0;orthogonalLoop=1;jettySize=auto;html=1;exitX=1;exitY=0.5;exitDx=0;exitDy=0;entryX=0;entryY=0.5;entryDx=0;entryDy=0;" edge="1" parent="1" source="XAqr80cx_UROCdp8eu2B-20" target="XAqr80cx_UROCdp8eu2B-27">
          <mxGeometry relative="1" as="geometry" />
        </mxCell>
        <mxCell id="XAqr80cx_UROCdp8eu2B-20" value="YW0=max&lt;div&gt;c=15-max(YW0)&lt;/div&gt;" style="rounded=0;whiteSpace=wrap;html=1;" vertex="1" parent="1">
          <mxGeometry x="560" y="530" width="120" height="60" as="geometry" />
        </mxCell>
        <mxCell id="XAqr80cx_UROCdp8eu2B-24" value="" style="group" vertex="1" connectable="0" parent="1">
          <mxGeometry x="259" y="50" width="310" height="100" as="geometry" />
        </mxCell>
        <mxCell id="XAqr80cx_UROCdp8eu2B-21" value="" style="rounded=0;whiteSpace=wrap;html=1;fillColor=#fff2cc;strokeColor=#d6b656;" vertex="1" parent="XAqr80cx_UROCdp8eu2B-24">
          <mxGeometry width="310" height="100" as="geometry" />
        </mxCell>
        <mxCell id="XAqr80cx_UROCdp8eu2B-22" value="&lt;p dir=&quot;ltr&quot; style=&quot;text-align: center&quot;&gt;&lt;span style=&quot;font-size: 8px; text-align: left;&quot;&gt;Y2R307003：118&lt;/span&gt;&lt;br style=&quot;padding: 0px; margin: 0px; font-size: 8px; text-align: left;&quot;&gt;&lt;span style=&quot;font-size: 8px; text-align: left;&quot;&gt;Y2R3L7003：117&lt;/span&gt;&lt;br style=&quot;padding: 0px; margin: 0px; font-size: 8px; text-align: left;&quot;&gt;&lt;span style=&quot;font-size: 8px; text-align: left;&quot;&gt;YW0407003：8&lt;/span&gt;&lt;br style=&quot;padding: 0px; margin: 0px; font-size: 8px; text-align: left;&quot;&gt;&lt;span style=&quot;font-size: 8px; text-align: left;&quot;&gt;YW04L7003：7&lt;/span&gt;&lt;br&gt;&lt;/p&gt;" style="rounded=0;whiteSpace=wrap;html=1;" vertex="1" parent="XAqr80cx_UROCdp8eu2B-24">
          <mxGeometry x="171" y="25" width="110" height="50" as="geometry" />
        </mxCell>
        <mxCell id="XAqr80cx_UROCdp8eu2B-23" value="&lt;p dir=&quot;ltr&quot; style=&quot;text-align: center&quot;&gt;&lt;font style=&quot;font-size: 6px;&quot;&gt;&lt;span style=&quot;color: rgba(0, 0, 0, 0.8); font-family: noto_regular;&quot;&gt;YD1＝0&amp;nbsp;&amp;nbsp;&lt;/span&gt;&lt;span style=&quot;background-color: initial; color: rgba(0, 0, 0, 0.8); font-family: noto_regular;&quot;&gt;Y2R＝235&amp;nbsp;&lt;/span&gt;&lt;/font&gt;&lt;span style=&quot;font-size: 6px; background-color: initial; color: rgba(0, 0, 0, 0.8); font-family: noto_regular;&quot;&gt;YW０＝15&lt;/span&gt;&lt;span style=&quot;font-size: 6px; background-color: initial; color: rgba(0, 0, 0, 0.8); font-family: noto_regular;&quot;&gt;（250　Vin）&lt;/span&gt;&lt;/p&gt;" style="rounded=0;whiteSpace=wrap;html=1;" vertex="1" parent="XAqr80cx_UROCdp8eu2B-24">
          <mxGeometry x="31" y="25" width="90" height="50" as="geometry" />
        </mxCell>
        <mxCell id="XAqr80cx_UROCdp8eu2B-25" value="A" style="ellipse;whiteSpace=wrap;html=1;aspect=fixed;fillColor=#f8cecc;strokeColor=#b85450;" vertex="1" parent="1">
          <mxGeometry x="259" y="30" width="20" height="20" as="geometry" />
        </mxCell>
        <mxCell id="XAqr80cx_UROCdp8eu2B-26" value="A" style="ellipse;whiteSpace=wrap;html=1;aspect=fixed;fillColor=#f8cecc;strokeColor=#b85450;" vertex="1" parent="1">
          <mxGeometry x="10" y="550" width="20" height="20" as="geometry" />
        </mxCell>
        <mxCell id="XAqr80cx_UROCdp8eu2B-27" value="A" style="ellipse;whiteSpace=wrap;html=1;aspect=fixed;fillColor=#f8cecc;strokeColor=#b85450;" vertex="1" parent="1">
          <mxGeometry x="730" y="550" width="20" height="20" as="geometry" />
        </mxCell>
        <mxCell id="XAqr80cx_UROCdp8eu2B-33" style="edgeStyle=orthogonalEdgeStyle;rounded=0;orthogonalLoop=1;jettySize=auto;html=1;exitX=0.5;exitY=0;exitDx=0;exitDy=0;entryX=0.543;entryY=1.045;entryDx=0;entryDy=0;entryPerimeter=0;" edge="1" parent="1" source="XAqr80cx_UROCdp8eu2B-17" target="XAqr80cx_UROCdp8eu2B-16">
          <mxGeometry relative="1" as="geometry" />
        </mxCell>
        <mxCell id="XAqr80cx_UROCdp8eu2B-34" style="edgeStyle=orthogonalEdgeStyle;rounded=0;orthogonalLoop=1;jettySize=auto;html=1;exitX=0.5;exitY=0;exitDx=0;exitDy=0;entryX=0.543;entryY=1.03;entryDx=0;entryDy=0;entryPerimeter=0;" edge="1" parent="1" source="XAqr80cx_UROCdp8eu2B-19" target="XAqr80cx_UROCdp8eu2B-16">
          <mxGeometry relative="1" as="geometry" />
        </mxCell>
        <mxCell id="XAqr80cx_UROCdp8eu2B-58" style="edgeStyle=orthogonalEdgeStyle;rounded=0;orthogonalLoop=1;jettySize=auto;html=1;exitX=0;exitY=0.5;exitDx=0;exitDy=0;entryX=1;entryY=0.5;entryDx=0;entryDy=0;" edge="1" parent="1" source="XAqr80cx_UROCdp8eu2B-46" target="XAqr80cx_UROCdp8eu2B-49">
          <mxGeometry relative="1" as="geometry" />
        </mxCell>
        <mxCell id="XAqr80cx_UROCdp8eu2B-59" value="Yes" style="edgeLabel;html=1;align=center;verticalAlign=middle;resizable=0;points=[];" vertex="1" connectable="0" parent="XAqr80cx_UROCdp8eu2B-58">
          <mxGeometry x="0.0497" y="1" relative="1" as="geometry">
            <mxPoint as="offset" />
          </mxGeometry>
        </mxCell>
        <mxCell id="XAqr80cx_UROCdp8eu2B-60" style="edgeStyle=orthogonalEdgeStyle;rounded=0;orthogonalLoop=1;jettySize=auto;html=1;exitX=0.5;exitY=1;exitDx=0;exitDy=0;entryX=0.5;entryY=0;entryDx=0;entryDy=0;" edge="1" parent="1" source="XAqr80cx_UROCdp8eu2B-46" target="XAqr80cx_UROCdp8eu2B-48">
          <mxGeometry relative="1" as="geometry" />
        </mxCell>
        <mxCell id="XAqr80cx_UROCdp8eu2B-61" value="No" style="edgeLabel;html=1;align=center;verticalAlign=middle;resizable=0;points=[];" vertex="1" connectable="0" parent="XAqr80cx_UROCdp8eu2B-60">
          <mxGeometry x="0.054" y="-3" relative="1" as="geometry">
            <mxPoint as="offset" />
          </mxGeometry>
        </mxCell>
        <mxCell id="XAqr80cx_UROCdp8eu2B-46" value="&lt;div&gt;&lt;font style=&quot;font-size: 8px;&quot;&gt;（Y2R307003）＞＝118&lt;/font&gt;&lt;/div&gt;&lt;div&gt;&lt;font style=&quot;font-size: 8px;&quot;&gt;（Y2R307003）＞＝117&lt;/font&gt;&lt;/div&gt;" style="rhombus;whiteSpace=wrap;html=1;" vertex="1" parent="1">
          <mxGeometry x="240" y="650" width="130" height="80" as="geometry" />
        </mxCell>
        <mxCell id="XAqr80cx_UROCdp8eu2B-68" style="edgeStyle=orthogonalEdgeStyle;rounded=0;orthogonalLoop=1;jettySize=auto;html=1;exitX=1;exitY=0.5;exitDx=0;exitDy=0;entryX=0;entryY=0.5;entryDx=0;entryDy=0;" edge="1" parent="1" source="XAqr80cx_UROCdp8eu2B-47" target="XAqr80cx_UROCdp8eu2B-51">
          <mxGeometry relative="1" as="geometry" />
        </mxCell>
        <mxCell id="XAqr80cx_UROCdp8eu2B-69" value="Yes" style="edgeLabel;html=1;align=center;verticalAlign=middle;resizable=0;points=[];" vertex="1" connectable="0" parent="XAqr80cx_UROCdp8eu2B-68">
          <mxGeometry x="-0.1397" y="2" relative="1" as="geometry">
            <mxPoint as="offset" />
          </mxGeometry>
        </mxCell>
        <mxCell id="XAqr80cx_UROCdp8eu2B-70" style="edgeStyle=orthogonalEdgeStyle;rounded=0;orthogonalLoop=1;jettySize=auto;html=1;exitX=0.5;exitY=1;exitDx=0;exitDy=0;entryX=0.5;entryY=0;entryDx=0;entryDy=0;" edge="1" parent="1" source="XAqr80cx_UROCdp8eu2B-47" target="XAqr80cx_UROCdp8eu2B-53">
          <mxGeometry relative="1" as="geometry" />
        </mxCell>
        <mxCell id="XAqr80cx_UROCdp8eu2B-71" value="No" style="edgeLabel;html=1;align=center;verticalAlign=middle;resizable=0;points=[];" vertex="1" connectable="0" parent="XAqr80cx_UROCdp8eu2B-70">
          <mxGeometry x="0.054" y="2" relative="1" as="geometry">
            <mxPoint as="offset" />
          </mxGeometry>
        </mxCell>
        <mxCell id="XAqr80cx_UROCdp8eu2B-47" value="&lt;div&gt;&lt;font style=&quot;font-size: 8px;&quot;&gt;（Y2R307003）＞＝118&lt;/font&gt;&lt;/div&gt;&lt;div&gt;&lt;font style=&quot;font-size: 8px;&quot;&gt;（Y2R307003）＞＝117&lt;/font&gt;&lt;/div&gt;" style="rhombus;whiteSpace=wrap;html=1;" vertex="1" parent="1">
          <mxGeometry x="390" y="650" width="130" height="80" as="geometry" />
        </mxCell>
        <mxCell id="XAqr80cx_UROCdp8eu2B-62" style="edgeStyle=orthogonalEdgeStyle;rounded=0;orthogonalLoop=1;jettySize=auto;html=1;exitX=0;exitY=0.5;exitDx=0;exitDy=0;entryX=1;entryY=0.5;entryDx=0;entryDy=0;" edge="1" parent="1" source="XAqr80cx_UROCdp8eu2B-48" target="XAqr80cx_UROCdp8eu2B-50">
          <mxGeometry relative="1" as="geometry" />
        </mxCell>
        <mxCell id="XAqr80cx_UROCdp8eu2B-63" value="No" style="edgeLabel;html=1;align=center;verticalAlign=middle;resizable=0;points=[];" vertex="1" connectable="0" parent="XAqr80cx_UROCdp8eu2B-62">
          <mxGeometry x="-0.0883" relative="1" as="geometry">
            <mxPoint as="offset" />
          </mxGeometry>
        </mxCell>
        <mxCell id="XAqr80cx_UROCdp8eu2B-64" style="edgeStyle=orthogonalEdgeStyle;rounded=0;orthogonalLoop=1;jettySize=auto;html=1;exitX=0.5;exitY=1;exitDx=0;exitDy=0;entryX=1;entryY=0.5;entryDx=0;entryDy=0;" edge="1" parent="1" source="XAqr80cx_UROCdp8eu2B-48" target="XAqr80cx_UROCdp8eu2B-55">
          <mxGeometry relative="1" as="geometry" />
        </mxCell>
        <mxCell id="XAqr80cx_UROCdp8eu2B-65" value="Yes" style="edgeLabel;html=1;align=center;verticalAlign=middle;resizable=0;points=[];" vertex="1" connectable="0" parent="XAqr80cx_UROCdp8eu2B-64">
          <mxGeometry x="-0.4903" y="1" relative="1" as="geometry">
            <mxPoint as="offset" />
          </mxGeometry>
        </mxCell>
        <mxCell id="XAqr80cx_UROCdp8eu2B-48" value="&lt;span style=&quot;font-size: 8px;&quot;&gt;（Y2R307003）＞＝118&lt;/span&gt;" style="rhombus;whiteSpace=wrap;html=1;" vertex="1" parent="1">
          <mxGeometry x="240" y="760" width="130" height="80" as="geometry" />
        </mxCell>
        <mxCell id="XAqr80cx_UROCdp8eu2B-81" style="edgeStyle=orthogonalEdgeStyle;rounded=0;orthogonalLoop=1;jettySize=auto;html=1;exitX=0;exitY=0.5;exitDx=0;exitDy=0;entryX=0.5;entryY=0;entryDx=0;entryDy=0;" edge="1" parent="1" source="XAqr80cx_UROCdp8eu2B-49" target="XAqr80cx_UROCdp8eu2B-77">
          <mxGeometry relative="1" as="geometry">
            <Array as="points">
              <mxPoint x="50" y="690" />
              <mxPoint x="50" y="970" />
              <mxPoint x="389" y="970" />
            </Array>
          </mxGeometry>
        </mxCell>
        <mxCell id="XAqr80cx_UROCdp8eu2B-49" value="&lt;div&gt;Y2R307003：118&lt;/div&gt;&lt;div&gt;Y2R3L7003：117&lt;/div&gt;" style="rounded=0;whiteSpace=wrap;html=1;" vertex="1" parent="1">
          <mxGeometry x="70" y="660" width="120" height="60" as="geometry" />
        </mxCell>
        <mxCell id="XAqr80cx_UROCdp8eu2B-82" style="edgeStyle=orthogonalEdgeStyle;rounded=0;orthogonalLoop=1;jettySize=auto;html=1;exitX=0;exitY=0.5;exitDx=0;exitDy=0;" edge="1" parent="1" source="XAqr80cx_UROCdp8eu2B-50">
          <mxGeometry relative="1" as="geometry">
            <mxPoint x="50" y="800.2413793103449" as="targetPoint" />
          </mxGeometry>
        </mxCell>
        <mxCell id="XAqr80cx_UROCdp8eu2B-50" value="&lt;div&gt;Number Max(Y2R307003)=a2&lt;/div&gt;&lt;div&gt;Y2R3L7003：235-a2&lt;/div&gt;&lt;div&gt;&lt;br&gt;&lt;/div&gt;" style="rounded=0;whiteSpace=wrap;html=1;" vertex="1" parent="1">
          <mxGeometry x="70" y="770" width="120" height="60" as="geometry" />
        </mxCell>
        <mxCell id="XAqr80cx_UROCdp8eu2B-78" style="edgeStyle=orthogonalEdgeStyle;rounded=0;orthogonalLoop=1;jettySize=auto;html=1;exitX=1;exitY=0.5;exitDx=0;exitDy=0;" edge="1" parent="1" source="XAqr80cx_UROCdp8eu2B-51" target="XAqr80cx_UROCdp8eu2B-77">
          <mxGeometry relative="1" as="geometry">
            <Array as="points">
              <mxPoint x="700" y="690" />
              <mxPoint x="700" y="970" />
              <mxPoint x="389" y="970" />
            </Array>
          </mxGeometry>
        </mxCell>
        <mxCell id="XAqr80cx_UROCdp8eu2B-51" value="&lt;div&gt;YW0407003：8&lt;/div&gt;&lt;div&gt;YW04L7003：7&lt;/div&gt;" style="rounded=0;whiteSpace=wrap;html=1;" vertex="1" parent="1">
          <mxGeometry x="560" y="660" width="120" height="60" as="geometry" />
        </mxCell>
        <mxCell id="XAqr80cx_UROCdp8eu2B-79" style="edgeStyle=orthogonalEdgeStyle;rounded=0;orthogonalLoop=1;jettySize=auto;html=1;exitX=1;exitY=0.5;exitDx=0;exitDy=0;" edge="1" parent="1" source="XAqr80cx_UROCdp8eu2B-52">
          <mxGeometry relative="1" as="geometry">
            <mxPoint x="699.9999999999998" y="800.2413793103449" as="targetPoint" />
          </mxGeometry>
        </mxCell>
        <mxCell id="XAqr80cx_UROCdp8eu2B-52" value="&lt;div&gt;YW0407003：15-b1&lt;/div&gt;&lt;div&gt;Number Max(YW04L7003)=b1&lt;/div&gt;" style="rounded=0;whiteSpace=wrap;html=1;" vertex="1" parent="1">
          <mxGeometry x="560" y="770" width="120" height="60" as="geometry" />
        </mxCell>
        <mxCell id="XAqr80cx_UROCdp8eu2B-72" style="edgeStyle=orthogonalEdgeStyle;rounded=0;orthogonalLoop=1;jettySize=auto;html=1;exitX=1;exitY=0.5;exitDx=0;exitDy=0;entryX=0;entryY=0.5;entryDx=0;entryDy=0;" edge="1" parent="1" source="XAqr80cx_UROCdp8eu2B-53" target="XAqr80cx_UROCdp8eu2B-52">
          <mxGeometry relative="1" as="geometry" />
        </mxCell>
        <mxCell id="XAqr80cx_UROCdp8eu2B-73" value="Yes" style="edgeLabel;html=1;align=center;verticalAlign=middle;resizable=0;points=[];" vertex="1" connectable="0" parent="XAqr80cx_UROCdp8eu2B-72">
          <mxGeometry x="-0.0362" y="4" relative="1" as="geometry">
            <mxPoint as="offset" />
          </mxGeometry>
        </mxCell>
        <mxCell id="XAqr80cx_UROCdp8eu2B-76" value="No" style="edgeLabel;html=1;align=center;verticalAlign=middle;resizable=0;points=[];" vertex="1" connectable="0" parent="XAqr80cx_UROCdp8eu2B-72">
          <mxGeometry x="-0.0017" y="6" relative="1" as="geometry">
            <mxPoint as="offset" />
          </mxGeometry>
        </mxCell>
        <mxCell id="XAqr80cx_UROCdp8eu2B-74" style="edgeStyle=orthogonalEdgeStyle;rounded=0;orthogonalLoop=1;jettySize=auto;html=1;exitX=0.5;exitY=1;exitDx=0;exitDy=0;entryX=0;entryY=0.5;entryDx=0;entryDy=0;" edge="1" parent="1" source="XAqr80cx_UROCdp8eu2B-53" target="XAqr80cx_UROCdp8eu2B-54">
          <mxGeometry relative="1" as="geometry" />
        </mxCell>
        <mxCell id="XAqr80cx_UROCdp8eu2B-75" value="Yes" style="edgeLabel;html=1;align=center;verticalAlign=middle;resizable=0;points=[];" vertex="1" connectable="0" parent="XAqr80cx_UROCdp8eu2B-74">
          <mxGeometry x="-0.4922" y="-1" relative="1" as="geometry">
            <mxPoint as="offset" />
          </mxGeometry>
        </mxCell>
        <mxCell id="XAqr80cx_UROCdp8eu2B-53" value="&lt;span style=&quot;font-size: 8px;&quot;&gt;（YW0407003）＞＝8&lt;/span&gt;" style="rhombus;whiteSpace=wrap;html=1;" vertex="1" parent="1">
          <mxGeometry x="390" y="760" width="130" height="80" as="geometry" />
        </mxCell>
        <mxCell id="XAqr80cx_UROCdp8eu2B-80" style="edgeStyle=orthogonalEdgeStyle;rounded=0;orthogonalLoop=1;jettySize=auto;html=1;exitX=1;exitY=0.5;exitDx=0;exitDy=0;" edge="1" parent="1" source="XAqr80cx_UROCdp8eu2B-54">
          <mxGeometry relative="1" as="geometry">
            <mxPoint x="699.9999999999998" y="892.6551724137933" as="targetPoint" />
          </mxGeometry>
        </mxCell>
        <mxCell id="XAqr80cx_UROCdp8eu2B-54" value="&lt;div&gt;Number Max(YW0407003)=b2&lt;/div&gt;&lt;div&gt;YW04L7003=15-b2&lt;/div&gt;" style="rounded=0;whiteSpace=wrap;html=1;" vertex="1" parent="1">
          <mxGeometry x="560" y="862.76" width="120" height="60" as="geometry" />
        </mxCell>
        <mxCell id="XAqr80cx_UROCdp8eu2B-83" style="edgeStyle=orthogonalEdgeStyle;rounded=0;orthogonalLoop=1;jettySize=auto;html=1;exitX=0;exitY=0.5;exitDx=0;exitDy=0;" edge="1" parent="1" source="XAqr80cx_UROCdp8eu2B-55">
          <mxGeometry relative="1" as="geometry">
            <mxPoint x="50" y="892.6551724137933" as="targetPoint" />
          </mxGeometry>
        </mxCell>
        <mxCell id="XAqr80cx_UROCdp8eu2B-55" value="&lt;div&gt;Number Max(Y2R307003)=a2&lt;/div&gt;&lt;div&gt;Y2R3L7003：235-a2&lt;/div&gt;" style="rounded=0;whiteSpace=wrap;html=1;" vertex="1" parent="1">
          <mxGeometry x="70" y="862.76" width="120" height="60" as="geometry" />
        </mxCell>
        <mxCell id="XAqr80cx_UROCdp8eu2B-56" style="edgeStyle=orthogonalEdgeStyle;rounded=0;orthogonalLoop=1;jettySize=auto;html=1;exitX=0.5;exitY=1;exitDx=0;exitDy=0;entryX=0.504;entryY=0.059;entryDx=0;entryDy=0;entryPerimeter=0;" edge="1" parent="1" source="XAqr80cx_UROCdp8eu2B-17" target="XAqr80cx_UROCdp8eu2B-46">
          <mxGeometry relative="1" as="geometry" />
        </mxCell>
        <mxCell id="XAqr80cx_UROCdp8eu2B-57" value="Yes" style="edgeLabel;html=1;align=center;verticalAlign=middle;resizable=0;points=[];" vertex="1" connectable="0" parent="XAqr80cx_UROCdp8eu2B-56">
          <mxGeometry x="-0.1167" y="-2" relative="1" as="geometry">
            <mxPoint as="offset" />
          </mxGeometry>
        </mxCell>
        <mxCell id="XAqr80cx_UROCdp8eu2B-85" style="edgeStyle=orthogonalEdgeStyle;rounded=0;orthogonalLoop=1;jettySize=auto;html=1;exitX=0.5;exitY=1;exitDx=0;exitDy=0;entryX=0.5;entryY=0;entryDx=0;entryDy=0;" edge="1" parent="1" source="XAqr80cx_UROCdp8eu2B-77" target="XAqr80cx_UROCdp8eu2B-84">
          <mxGeometry relative="1" as="geometry" />
        </mxCell>
        <mxCell id="XAqr80cx_UROCdp8eu2B-77" value="&lt;p data-pm-slice=&quot;1 1 [&amp;quot;tiptapChildEditor&amp;quot;,{&amp;quot;id&amp;quot;:&amp;quot;2d44ba41-2159-464f-980d-7a0edf9fa932&amp;quot;,&amp;quot;entityid&amp;quot;:&amp;quot;&amp;quot;,&amp;quot;shapeId&amp;quot;:&amp;quot;gNdb7kO2tqJ&amp;quot;,&amp;quot;textId&amp;quot;:&amp;quot;identifier&amp;quot;}]&quot; dir=&quot;ltr&quot;&gt;&lt;span style=&quot;color: rgb(75, 75, 75); font-family: noto_regular;&quot;&gt;&lt;font style=&quot;font-size: 20px;&quot;&gt;VIn を選択&lt;/font&gt;&lt;/span&gt;&lt;/p&gt;" style="rounded=0;whiteSpace=wrap;html=1;fillColor=#dae8fc;strokeColor=#6c8ebf;" vertex="1" parent="1">
          <mxGeometry x="279" y="1000" width="220" height="50" as="geometry" />
        </mxCell>
        <mxCell id="XAqr80cx_UROCdp8eu2B-84" value="End" style="ellipse;whiteSpace=wrap;html=1;fillColor=#f8cecc;strokeColor=#b85450;" vertex="1" parent="1">
          <mxGeometry x="344" y="1100" width="90" height="51" as="geometry" />
        </mxCell>
      </root>
    </mxGraphModel>
  </diagram>
</mxfile>
